<svg xmlns="http://www.w3.org/2000/svg" xmlns:xlink="http://www.w3.org/1999/xlink" contentStyleType="text/css" data-diagram-type="CLASS" height="1148px" preserveAspectRatio="none" style="width:1439px;height:1148px;background:#FFFFFF;" version="1.1" viewBox="0 0 1439 1148" width="1439px" zoomAndPan="magnify"><?plantuml 1.2026.6?><defs/><g><!--cluster v3--><g class="cluster" data-qualified-name="v3" data-source-line="51" id="ent0007"><path d="M135.51,159.95 L154.051,159.95 A3.75,3.75 0 0 1 156.551,162.45 L163.551,182.4383 L1053.51,182.4383 A2.5,2.5 0 0 1 1056.01,184.9383 L1056.01,745.78 A2.5,2.5 0 0 1 1053.51,748.28 L135.51,748.28 A2.5,2.5 0 0 1 133.01,745.78 L133.01,162.45 A2.5,2.5 0 0 1 135.51,159.95" fill="none" style="stroke:#000000;stroke-width:1.5;"/><line style="stroke:#000000;stroke-width:1.5;" x1="133.01" x2="163.551" y1="182.4383" y2="182.4383"/><text fill="#000000" font-family="sans-serif" font-size="14" font-weight="700" lengthAdjust="spacing" textLength="17.541" x="137.01" y="175.4852">v3</text></g><!--class NodeServiceImpl--><g class="entity" data-qualified-name="v3.NodeServiceImpl" data-source-line="52" id="ent0008"><rect fill="#F1F1F1" height="146.9297" rx="2.5" ry="2.5" style="stroke:#181818;stroke-width:0.5;" width="324.6553" x="639.69" y="194.95"/><ellipse cx="741.3438" cy="210.95" fill="#ADD1B2" rx="11" ry="11" style="stroke:#181818;stroke-width:1;"/><path d="M743.817,217.0931 Q743.2359,217.3919 742.5967,217.5413 Q741.9576,217.6907 741.252,217.6907 Q738.7452,217.6907 737.4254,216.0389 Q736.1055,214.387 736.1055,211.2659 Q736.1055,208.1365 737.4254,206.4847 Q738.7452,204.8328 741.252,204.8328 Q741.9576,204.8328 742.605,204.9822 Q743.2525,205.1316 743.817,205.4305 L743.817,208.1531 Q743.1861,207.5721 742.5926,207.3023 Q741.9991,207.0325 741.3682,207.0325 Q740.0235,207.0325 739.3387,208.0992 Q738.6539,209.1658 738.6539,211.2659 Q738.6539,213.3577 739.3387,214.4244 Q740.0235,215.491 741.3682,215.491 Q741.9991,215.491 742.5926,215.2212 Q743.1861,214.9515 743.817,214.3704 Z " fill="#000000"/><text fill="#000000" font-family="sans-serif" font-size="14" lengthAdjust="spacing" textLength="112.8477" x="761.8438" y="216.241">NodeServiceImpl</text><line style="stroke:#181818;stroke-width:0.5;" x1="640.69" x2="963.3453" y1="226.95" y2="226.95"/><g data-visibility-modifier="PRIVATE_FIELD"><rect fill="none" height="6" style="stroke:#C82930;stroke-width:1;" width="6" x="647.69" y="237.6941"/></g><text fill="#000000" font-family="sans-serif" font-size="14" lengthAdjust="spacing" textLength="298.6553" x="659.69" y="244.4852">registry_ : shared_ptr&lt;NodeModelRegistry&gt;</text><g data-visibility-modifier="PRIVATE_FIELD"><rect fill="none" height="6" style="stroke:#C82930;stroke-width:1;" width="6" x="647.69" y="254.1824"/></g><text fill="#000000" font-family="sans-serif" font-size="14" lengthAdjust="spacing" textLength="181.9453" x="659.69" y="260.9734">keep_alive_list_ : MRU pins</text><g data-visibility-modifier="PRIVATE_FIELD"><rect fill="none" height="6" style="stroke:#C82930;stroke-width:1;" width="6" x="647.69" y="270.6707"/></g><text fill="#000000" font-family="sans-serif" font-size="14" lengthAdjust="spacing" textLength="258.0088" x="659.69" y="277.4617">pending_fetch_nodes_ : pinned queue</text><line style="stroke:#181818;stroke-width:0.5;" x1="640.69" x2="963.3453" y1="284.4148" y2="284.4148"/><g data-visibility-modifier="PRIVATE_METHOD"><rect fill="#F24D5C" height="6" style="stroke:#C82930;stroke-width:1;" width="6" x="647.69" y="295.159"/></g><text fill="#000000" font-family="sans-serif" font-size="14" lengthAdjust="spacing" textLength="237.2822" x="659.69" y="301.95">FindNodeModel(id) &#171;never creates&#187;</text><g data-visibility-modifier="PRIVATE_METHOD"><rect fill="#F24D5C" height="6" style="stroke:#C82930;stroke-width:1;" width="6" x="647.69" y="311.6473"/></g><text fill="#000000" font-family="sans-serif" font-size="14" lengthAdjust="spacing" textLength="298.04" x="659.69" y="318.4383">GetNodeModel(id) &#171;creates + touches MRU&#187;</text><g data-visibility-modifier="PRIVATE_METHOD"><rect fill="#F24D5C" height="6" style="stroke:#C82930;stroke-width:1;" width="6" x="647.69" y="328.1355"/></g><text fill="#000000" font-family="sans-serif" font-size="14" lengthAdjust="spacing" textLength="182.3555" x="659.69" y="334.9266">SpawnFetch(id, status, pin)</text></g><!--class NodeModelImpl--><g class="entity" data-qualified-name="v3.NodeModelImpl" data-source-line="61" id="ent0009"><rect fill="#F1F1F1" height="130.4414" rx="2.5" ry="2.5" style="stroke:#181818;stroke-width:0.5;" width="360.3252" x="202.85" y="601.83"/><ellipse cx="325.3466" cy="617.83" fill="#ADD1B2" rx="11" ry="11" style="stroke:#181818;stroke-width:1;"/><path d="M327.8197,623.9731 Q327.2387,624.2719 326.5995,624.4213 Q325.9604,624.5707 325.2548,624.5707 Q322.7479,624.5707 321.4281,622.9189 Q320.1083,621.267 320.1083,618.1459 Q320.1083,615.0165 321.4281,613.3647 Q322.7479,611.7128 325.2548,611.7128 Q325.9604,611.7128 326.6078,611.8622 Q327.2553,612.0116 327.8197,612.3105 L327.8197,615.0331 Q327.1889,614.4521 326.5954,614.1823 Q326.0019,613.9125 325.371,613.9125 Q324.0263,613.9125 323.3415,614.9792 Q322.6566,616.0458 322.6566,618.1459 Q322.6566,620.2377 323.3415,621.3044 Q324.0263,622.371 325.371,622.371 Q326.0019,622.371 326.5954,622.1012 Q327.1889,621.8315 327.8197,621.2504 Z " fill="#000000"/><text fill="#000000" font-family="sans-serif" font-size="14" lengthAdjust="spacing" textLength="106.832" x="345.8466" y="623.121">NodeModelImpl</text><line style="stroke:#181818;stroke-width:0.5;" x1="203.85" x2="562.1752" y1="633.83" y2="633.83"/><g data-visibility-modifier="PRIVATE_FIELD"><rect fill="none" height="6" style="stroke:#C82930;stroke-width:1;" width="6" x="210.85" y="644.5741"/></g><text fill="#000000" font-family="sans-serif" font-size="14" lengthAdjust="spacing" textLength="298.6553" x="222.85" y="651.3652">registry_ : shared_ptr&lt;NodeModelRegistry&gt;</text><g data-visibility-modifier="PRIVATE_FIELD"><rect fill="none" height="6" style="stroke:#C82930;stroke-width:1;" width="6" x="210.85" y="661.0624"/></g><text fill="#000000" font-family="sans-serif" font-size="14" lengthAdjust="spacing" textLength="274.8594" x="222.85" y="667.8534">node_state_ : NodeState &#171;working state&#187;</text><g data-visibility-modifier="PRIVATE_FIELD"><rect fill="none" height="6" style="stroke:#C82930;stroke-width:1;" width="6" x="210.85" y="677.5507"/></g><text fill="#000000" font-family="sans-serif" font-size="14" lengthAdjust="spacing" textLength="117.5645" x="222.85" y="684.3417">child_references_</text><g data-visibility-modifier="PRIVATE_FIELD"><rect fill="none" height="6" style="stroke:#C82930;stroke-width:1;" width="6" x="210.85" y="694.039"/></g><text fill="#000000" font-family="sans-serif" font-size="14" lengthAdjust="spacing" textLength="334.3252" x="222.85" y="700.83">child_models_ : vector&lt;NodeRef&gt; &#171;subtree pins&#187;</text><line style="stroke:#181818;stroke-width:0.5;" x1="203.85" x2="562.1752" y1="707.7831" y2="707.7831"/><g data-visibility-modifier="PRIVATE_METHOD"><rect fill="#F24D5C" height="6" style="stroke:#C82930;stroke-width:1;" width="6" x="210.85" y="718.5273"/></g><text fill="#000000" font-family="sans-serif" font-size="14" lengthAdjust="spacing" textLength="294.1982" x="222.85" y="725.3183">NotifyStateChanged() &#171;publishes snapshot&#187;</text></g><!--class NodeModelRegistry--><g class="entity" data-qualified-name="v3.NodeModelRegistry" data-source-line="69" id="ent0010"><rect fill="#F1F1F1" height="65.1094" rx="2.5" ry="2.5" style="stroke:#181818;stroke-width:0.5;" width="379.8213" x="149.1" y="439.3"/><ellipse cx="268.9032" cy="459.6105" fill="#ADD1B2" rx="11" ry="11" style="stroke:#181818;stroke-width:1;"/><path d="M271.3764,465.7536 Q270.7953,466.0524 270.1562,466.2019 Q269.517,466.3513 268.8114,466.3513 Q266.3046,466.3513 264.9848,464.6994 Q263.6649,463.0476 263.6649,459.9265 Q263.6649,456.7971 264.9848,455.1452 Q266.3046,453.4934 268.8114,453.4934 Q269.517,453.4934 270.1645,453.6428 Q270.8119,453.7922 271.3764,454.091 L271.3764,456.8137 Q270.7455,456.2326 270.152,455.9628 Q269.5585,455.6931 268.9276,455.6931 Q267.5829,455.6931 266.8981,456.7597 Q266.2133,457.8264 266.2133,459.9265 Q266.2133,462.0183 266.8981,463.0849 Q267.5829,464.1516 268.9276,464.1516 Q269.5585,464.1516 270.152,463.8818 Q270.7455,463.612 271.3764,463.031 Z " fill="#000000"/><text fill="#000000" font-family="sans-serif" font-size="12" font-style="italic" lengthAdjust="spacing" textLength="118.2598" x="296.1308" y="455.9016">&#171;shared, weak map&#187;</text><text fill="#000000" font-family="sans-serif" font-size="14" lengthAdjust="spacing" textLength="131.7148" x="289.4032" y="471.968">NodeModelRegistry</text><line style="stroke:#181818;stroke-width:0.5;" x1="150.1" x2="527.9213" y1="479.9211" y2="479.9211"/><g data-visibility-modifier="PUBLIC_FIELD"><ellipse cx="160.1" cy="493.6652" fill="none" rx="3" ry="3" style="stroke:#038048;stroke-width:1;"/></g><text fill="#000000" font-family="sans-serif" font-size="14" lengthAdjust="spacing" textLength="353.8213" x="169.1" y="497.4562">nodes : map&lt;NodeId, weak_ptr&lt;NodeModelImpl&gt;&gt;</text></g><!--class NodeFetcher--><g class="entity" data-qualified-name="v3.NodeFetcher" data-source-line="73" id="ent0011"><rect fill="#F1F1F1" height="72.9766" rx="2.5" ry="2.5" style="stroke:#181818;stroke-width:0.5;" width="475.3672" x="564.33" y="435.37"/><ellipse cx="755.0219" cy="451.37" fill="#B4A7E5" rx="11" ry="11" style="stroke:#181818;stroke-width:1;"/><path d="M751.4496,447.6351 L751.4496,445.4769 L758.829,445.4769 L758.829,447.6351 L756.3637,447.6351 L756.3637,455.7118 L758.829,455.7118 L758.829,457.87 L751.4496,457.87 L751.4496,455.7118 L753.915,455.7118 L753.915,447.6351 Z " fill="#000000"/><text fill="#000000" font-family="sans-serif" font-size="14" font-style="italic" lengthAdjust="spacing" textLength="85.4834" x="775.5219" y="456.661">NodeFetcher</text><line style="stroke:#181818;stroke-width:0.5;" x1="565.33" x2="1038.6972" y1="467.37" y2="467.37"/><g data-visibility-modifier="PUBLIC_METHOD"><ellipse cx="575.33" cy="481.1141" fill="#84BE84" rx="3" ry="3" style="stroke:#038048;stroke-width:1;"/></g><text fill="#000000" font-family="sans-serif" font-size="14" lengthAdjust="spacing" textLength="344.8457" x="584.33" y="484.9052">FetchNode(id) : Awaitable&lt;StatusOr&lt;NodeState&gt;&gt;</text><g data-visibility-modifier="PUBLIC_METHOD"><ellipse cx="575.33" cy="497.6024" fill="#84BE84" rx="3" ry="3" style="stroke:#038048;stroke-width:1;"/></g><text fill="#000000" font-family="sans-serif" font-size="14" lengthAdjust="spacing" textLength="449.3672" x="584.33" y="501.3934">FetchChildren(id) : Awaitable&lt;StatusOr&lt;ReferenceDescriptions&gt;&gt;</text></g><!--class NodeService--><g class="entity" data-qualified-name="NodeService" data-source-line="6" id="ent0001"><rect fill="#F1F1F1" height="105.9531" rx="2.5" ry="2.5" style="stroke:#181818;stroke-width:0.5;" width="247.0674" x="678.48" y="7"/><ellipse cx="756.3208" cy="23" fill="#B4A7E5" rx="11" ry="11" style="stroke:#181818;stroke-width:1;"/><path d="M752.7486,19.2651 L752.7486,17.1069 L760.1279,17.1069 L760.1279,19.2651 L757.6626,19.2651 L757.6626,27.3418 L760.1279,27.3418 L760.1279,29.5 L752.7486,29.5 L752.7486,27.3418 L755.2139,27.3418 L755.2139,19.2651 Z " fill="#000000"/><text fill="#000000" font-family="sans-serif" font-size="14" font-style="italic" lengthAdjust="spacing" textLength="82.8857" x="776.8208" y="28.291">NodeService</text><line style="stroke:#181818;stroke-width:0.5;" x1="679.48" x2="924.5474" y1="39" y2="39"/><g data-visibility-modifier="PUBLIC_METHOD"><ellipse cx="689.48" cy="52.7441" fill="#84BE84" rx="3" ry="3" style="stroke:#038048;stroke-width:1;"/></g><text fill="#000000" font-family="sans-serif" font-size="14" lengthAdjust="spacing" textLength="192.2129" x="698.48" y="56.5352">GetNode(node_id) : NodeRef</text><g data-visibility-modifier="PUBLIC_METHOD"><ellipse cx="689.48" cy="69.2324" fill="#84BE84" rx="3" ry="3" style="stroke:#038048;stroke-width:1;"/></g><text fill="#000000" font-family="sans-serif" font-size="14" lengthAdjust="spacing" textLength="203.082" x="698.48" y="73.0234">Subscribe(NodeRefObserver&amp;)</text><g data-visibility-modifier="PUBLIC_METHOD"><ellipse cx="689.48" cy="85.7207" fill="#84BE84" rx="3" ry="3" style="stroke:#038048;stroke-width:1;"/></g><text fill="#000000" font-family="sans-serif" font-size="14" lengthAdjust="spacing" textLength="221.0674" x="698.48" y="89.5117">Unsubscribe(NodeRefObserver&amp;)</text><g data-visibility-modifier="PUBLIC_METHOD"><ellipse cx="689.48" cy="102.209" fill="#84BE84" rx="3" ry="3" style="stroke:#038048;stroke-width:1;"/></g><text fill="#000000" font-family="sans-serif" font-size="14" lengthAdjust="spacing" textLength="212.0986" x="698.48" y="106">GetPendingTaskCount() : size_t</text></g><!--class NodeRef--><g class="entity" data-qualified-name="NodeRef" data-source-line="13" id="ent0002"><rect fill="#F1F1F1" height="155.5508" rx="2.5" ry="2.5" style="stroke:#181818;stroke-width:0.5;" width="343.7822" x="211.12" y="811.28"/><ellipse cx="337.7416" cy="831.5905" fill="#ADD1B2" rx="11" ry="11" style="stroke:#181818;stroke-width:1;"/><path d="M340.2147,837.7336 Q339.6337,838.0324 338.9945,838.1819 Q338.3554,838.3313 337.6498,838.3313 Q335.1429,838.3313 333.8231,836.6794 Q332.5033,835.0276 332.5033,831.9065 Q332.5033,828.7771 333.8231,827.1252 Q335.1429,825.4734 337.6498,825.4734 Q338.3554,825.4734 339.0028,825.6228 Q339.6503,825.7722 340.2147,826.071 L340.2147,828.7937 Q339.5839,828.2126 338.9904,827.9428 Q338.3969,827.6731 337.766,827.6731 Q336.4213,827.6731 335.7365,828.7397 Q335.0516,829.8064 335.0516,831.9065 Q335.0516,833.9983 335.7365,835.0649 Q336.4213,836.1316 337.766,836.1316 Q338.3969,836.1316 338.9904,835.8618 Q339.5839,835.592 340.2147,835.011 Z " fill="#000000"/><text fill="#000000" font-family="sans-serif" font-size="12" font-style="italic" lengthAdjust="spacing" textLength="86.0391" x="356.2416" y="827.8816">&#171;value handle&#187;</text><text fill="#000000" font-family="sans-serif" font-size="14" lengthAdjust="spacing" textLength="57.3535" x="370.5844" y="843.948">NodeRef</text><line style="stroke:#181818;stroke-width:0.5;" x1="212.12" x2="553.9022" y1="851.9011" y2="851.9011"/><g data-visibility-modifier="PRIVATE_FIELD"><rect fill="none" height="6" style="stroke:#C82930;stroke-width:1;" width="6" x="219.12" y="862.6452"/></g><text fill="#000000" font-family="sans-serif" font-size="14" lengthAdjust="spacing" textLength="275.6797" x="231.12" y="869.4363">model_ : shared_ptr&lt;const NodeModel&gt;</text><line style="stroke:#181818;stroke-width:0.5;" x1="212.12" x2="553.9022" y1="876.3894" y2="876.3894"/><g data-visibility-modifier="PUBLIC_METHOD"><ellipse cx="222.12" cy="890.1335" fill="#84BE84" rx="3" ry="3" style="stroke:#038048;stroke-width:1;"/></g><text fill="#000000" font-family="sans-serif" font-size="14" lengthAdjust="spacing" textLength="142.085" x="231.12" y="893.9245">attribute(id) : Variant</text><g data-visibility-modifier="PUBLIC_METHOD"><ellipse cx="222.12" cy="906.6218" fill="#84BE84" rx="3" ry="3" style="stroke:#038048;stroke-width:1;"/></g><text fill="#000000" font-family="sans-serif" font-size="14" lengthAdjust="spacing" textLength="252.5879" x="231.12" y="910.4128">targets() / parent() / type_definition()</text><g data-visibility-modifier="PUBLIC_METHOD"><ellipse cx="222.12" cy="923.1101" fill="#84BE84" rx="3" ry="3" style="stroke:#038048;stroke-width:1;"/></g><text fill="#000000" font-family="sans-serif" font-size="14" lengthAdjust="spacing" textLength="317.7822" x="231.12" y="926.9011">Fetch(NodeFetchStatus) : Awaitable&lt;NodeRef&gt;</text><g data-visibility-modifier="PUBLIC_METHOD"><ellipse cx="222.12" cy="939.5984" fill="#84BE84" rx="3" ry="3" style="stroke:#038048;stroke-width:1;"/></g><text fill="#000000" font-family="sans-serif" font-size="14" lengthAdjust="spacing" textLength="190.5039" x="231.12" y="943.3894">StartFetch(NodeFetchStatus)</text><g data-visibility-modifier="PUBLIC_METHOD"><ellipse cx="222.12" cy="956.0866" fill="#84BE84" rx="3" ry="3" style="stroke:#038048;stroke-width:1;"/></g><text fill="#000000" font-family="sans-serif" font-size="14" lengthAdjust="spacing" textLength="203.082" x="231.12" y="959.8777">Subscribe(NodeRefObserver&amp;)</text></g><!--class NodeModel--><g class="entity" data-qualified-name="NodeModel" data-source-line="22" id="ent0003"><rect fill="#F1F1F1" height="138.9297" rx="2.5" ry="2.5" style="stroke:#181818;stroke-width:0.5;" width="263.043" x="617.49" y="819.59"/><ellipse cx="706.3264" cy="835.59" fill="#B4A7E5" rx="11" ry="11" style="stroke:#181818;stroke-width:1;"/><path d="M702.7542,831.8551 L702.7542,829.6969 L710.1336,829.6969 L710.1336,831.8551 L707.6682,831.8551 L707.6682,839.9318 L710.1336,839.9318 L710.1336,842.09 L702.7542,842.09 L702.7542,839.9318 L705.2195,839.9318 L705.2195,831.8551 Z " fill="#000000"/><text fill="#000000" font-family="sans-serif" font-size="14" font-style="italic" lengthAdjust="spacing" textLength="76.8701" x="726.8264" y="840.881">NodeModel</text><line style="stroke:#181818;stroke-width:0.5;" x1="618.49" x2="879.533" y1="851.59" y2="851.59"/><g data-visibility-modifier="PUBLIC_METHOD"><ellipse cx="628.49" cy="865.3341" fill="#84BE84" rx="3" ry="3" style="stroke:#038048;stroke-width:1;"/></g><text fill="#000000" font-family="sans-serif" font-size="14" lengthAdjust="spacing" textLength="128.6865" x="637.49" y="869.1252">GetStatus() : Status</text><g data-visibility-modifier="PUBLIC_METHOD"><ellipse cx="628.49" cy="881.8224" fill="#84BE84" rx="3" ry="3" style="stroke:#038048;stroke-width:1;"/></g><text fill="#000000" font-family="sans-serif" font-size="14" lengthAdjust="spacing" textLength="237.043" x="637.49" y="885.6134">GetFetchStatus() : NodeFetchStatus</text><g data-visibility-modifier="PUBLIC_METHOD"><ellipse cx="628.49" cy="898.3107" fill="#84BE84" rx="3" ry="3" style="stroke:#038048;stroke-width:1;"/></g><text fill="#000000" font-family="sans-serif" font-size="14" lengthAdjust="spacing" textLength="167.166" x="637.49" y="902.1017">GetAttribute(id) : Variant</text><g data-visibility-modifier="PUBLIC_METHOD"><ellipse cx="628.49" cy="914.799" fill="#84BE84" rx="3" ry="3" style="stroke:#038048;stroke-width:1;"/></g><text fill="#000000" font-family="sans-serif" font-size="14" lengthAdjust="spacing" textLength="232.4355" x="637.49" y="918.59">GetReferences(...) / GetTargets(...)</text><g data-visibility-modifier="PUBLIC_METHOD"><ellipse cx="628.49" cy="931.2873" fill="#84BE84" rx="3" ry="3" style="stroke:#038048;stroke-width:1;"/></g><text fill="#000000" font-family="sans-serif" font-size="14" lengthAdjust="spacing" textLength="165.2656" x="637.49" y="935.0783">Fetch(...) / StartFetch(...)</text><g data-visibility-modifier="PUBLIC_METHOD"><ellipse cx="628.49" cy="947.7755" fill="#84BE84" rx="3" ry="3" style="stroke:#038048;stroke-width:1;"/></g><text fill="#000000" font-family="sans-serif" font-size="14" lengthAdjust="spacing" textLength="203.082" x="637.49" y="951.5666">Subscribe(NodeRefObserver&amp;)</text></g><!--class BaseNodeModel--><g class="entity" data-qualified-name="BaseNodeModel" data-source-line="31" id="ent0004"><rect fill="#F1F1F1" height="105.9531" rx="2.5" ry="2.5" style="stroke:#181818;stroke-width:0.5;" width="338.0264" x="9" y="1027.83"/><ellipse cx="119.9678" cy="1043.83" fill="#A9DCDF" rx="11" ry="11" style="stroke:#181818;stroke-width:1;"/><path d="M119.8311,1039.1781 L118.6772,1044.2499 L120.9932,1044.2499 Z M118.3369,1036.9369 L121.3335,1036.9369 L124.6787,1049.33 L122.23,1049.33 L121.4663,1046.267 L118.1875,1046.267 L117.4404,1049.33 L114.9917,1049.33 Z " fill="#000000"/><text fill="#000000" font-family="sans-serif" font-size="14" font-style="italic" lengthAdjust="spacing" textLength="107.5908" x="140.4678" y="1049.121">BaseNodeModel</text><line style="stroke:#181818;stroke-width:0.5;" x1="10" x2="346.0264" y1="1059.83" y2="1059.83"/><g data-visibility-modifier="PROTECTED_FIELD"><polygon fill="none" points="20,1068.5741,24,1072.5741,20,1076.5741,16,1072.5741" style="stroke:#B38D22;stroke-width:1;stroke-linejoin:miter;stroke-miterlimit:10;"/></g><text fill="#000000" font-family="sans-serif" font-size="14" lengthAdjust="spacing" textLength="103.0244" x="29" y="1077.3652">status_ : Status</text><g data-visibility-modifier="PROTECTED_FIELD"><polygon fill="none" points="20,1085.0624,24,1089.0624,20,1093.0624,16,1089.0624" style="stroke:#B38D22;stroke-width:1;stroke-linejoin:miter;stroke-miterlimit:10;"/></g><text fill="#000000" font-family="sans-serif" font-size="14" lengthAdjust="spacing" textLength="216.0225" x="29" y="1093.8534">fetch_status_ : NodeFetchStatus</text><g data-visibility-modifier="PROTECTED_FIELD"><polygon fill="none" points="20,1101.5507,24,1105.5507,20,1109.5507,16,1105.5507" style="stroke:#B38D22;stroke-width:1;stroke-linejoin:miter;stroke-miterlimit:10;"/></g><text fill="#000000" font-family="sans-serif" font-size="14" lengthAdjust="spacing" textLength="110.0723" x="29" y="1110.3417">fetch_callbacks_</text><g data-visibility-modifier="PROTECTED_FIELD"><polygon fill="none" points="20,1118.039,24,1122.039,20,1126.039,16,1122.039" style="stroke:#B38D22;stroke-width:1;stroke-linejoin:miter;stroke-miterlimit:10;"/></g><text fill="#000000" font-family="sans-serif" font-size="14" lengthAdjust="spacing" textLength="312.0264" x="29" y="1126.83">observers_ : ObserverList&lt;NodeRefObserver&gt;</text></g><!--class NodeRefObserver--><g class="entity" data-qualified-name="NodeRefObserver" data-source-line="38" id="ent0005"><rect fill="#F1F1F1" height="105.9531" rx="2.5" ry="2.5" style="stroke:#181818;stroke-width:0.5;" width="349.6953" x="1075.17" y="418.88"/><ellipse cx="1186.5274" cy="434.88" fill="#B4A7E5" rx="11" ry="11" style="stroke:#181818;stroke-width:1;"/><path d="M1182.9552,431.1451 L1182.9552,428.9869 L1190.3346,428.9869 L1190.3346,431.1451 L1187.8692,431.1451 L1187.8692,439.2218 L1190.3346,439.2218 L1190.3346,441.38 L1182.9552,441.38 L1182.9552,439.2218 L1185.4205,439.2218 L1185.4205,431.1451 Z " fill="#000000"/><text fill="#000000" font-family="sans-serif" font-size="14" font-style="italic" lengthAdjust="spacing" textLength="118.4805" x="1207.0274" y="440.171">NodeRefObserver</text><line style="stroke:#181818;stroke-width:0.5;" x1="1076.17" x2="1423.8653" y1="450.88" y2="450.88"/><g data-visibility-modifier="PUBLIC_METHOD"><ellipse cx="1086.17" cy="464.6241" fill="#84BE84" rx="3" ry="3" style="stroke:#038048;stroke-width:1;"/></g><text fill="#000000" font-family="sans-serif" font-size="14" lengthAdjust="spacing" textLength="259.3213" x="1095.17" y="468.4152">OnModelChanged(ModelChangeEvent)</text><g data-visibility-modifier="PUBLIC_METHOD"><ellipse cx="1086.17" cy="481.1124" fill="#84BE84" rx="3" ry="3" style="stroke:#038048;stroke-width:1;"/></g><text fill="#000000" font-family="sans-serif" font-size="14" lengthAdjust="spacing" textLength="234.042" x="1095.17" y="484.9034">OnNodeSemanticChanged(NodeId)</text><g data-visibility-modifier="PUBLIC_METHOD"><ellipse cx="1086.17" cy="497.6007" fill="#84BE84" rx="3" ry="3" style="stroke:#038048;stroke-width:1;"/></g><text fill="#000000" font-family="sans-serif" font-size="14" lengthAdjust="spacing" textLength="242.3613" x="1095.17" y="501.3917">OnNodeFetched(NodeFetchedEvent)</text><g data-visibility-modifier="PUBLIC_METHOD"><ellipse cx="1086.17" cy="514.089" fill="#84BE84" rx="3" ry="3" style="stroke:#038048;stroke-width:1;"/></g><text fill="#000000" font-family="sans-serif" font-size="14" lengthAdjust="spacing" textLength="323.6953" x="1095.17" y="517.88">OnNodeStateChanged(NodeStateChangedEvent)</text></g><!--class NodeStateChangedEvent--><g class="entity" data-qualified-name="NodeStateChangedEvent" data-source-line="45" id="ent0006"><rect fill="#F1F1F1" height="98.0859" rx="2.5" ry="2.5" style="stroke:#181818;stroke-width:0.5;" width="318.291" x="915.87" y="840.01"/><ellipse cx="987.8695" cy="860.3205" fill="#ADD1B2" rx="11" ry="11" style="stroke:#181818;stroke-width:1;"/><path d="M990.3427,866.4636 Q989.7616,866.7624 989.1224,866.9119 Q988.4833,867.0613 987.7777,867.0613 Q985.2709,867.0613 983.9511,865.4094 Q982.6312,863.7576 982.6312,860.6365 Q982.6312,857.5071 983.9511,855.8552 Q985.2709,854.2034 987.7777,854.2034 Q988.4833,854.2034 989.1307,854.3528 Q989.7782,854.5022 990.3427,854.801 L990.3427,857.5237 Q989.7118,856.9426 989.1183,856.6728 Q988.5248,856.4031 987.8939,856.4031 Q986.5492,856.4031 985.8644,857.4697 Q985.1796,858.5364 985.1796,860.6365 Q985.1796,862.7283 985.8644,863.7949 Q986.5492,864.8616 987.8939,864.8616 Q988.5248,864.8616 989.1183,864.5918 Q989.7118,864.322 990.3427,863.741 Z " fill="#000000"/><text fill="#000000" font-family="sans-serif" font-size="12" font-style="italic" lengthAdjust="spacing" textLength="44.0918" x="1069.2196" y="856.6116">&#171;event&#187;</text><text fill="#000000" font-family="sans-serif" font-size="14" lengthAdjust="spacing" textLength="165.792" x="1008.3695" y="872.678">NodeStateChangedEvent</text><line style="stroke:#181818;stroke-width:0.5;" x1="916.87" x2="1233.161" y1="880.6311" y2="880.6311"/><g data-visibility-modifier="PUBLIC_FIELD"><ellipse cx="926.87" cy="894.3752" fill="none" rx="3" ry="3" style="stroke:#038048;stroke-width:1;"/></g><text fill="#000000" font-family="sans-serif" font-size="14" lengthAdjust="spacing" textLength="115.4453" x="935.87" y="898.1663">node_id : NodeId</text><g data-visibility-modifier="PUBLIC_FIELD"><ellipse cx="926.87" cy="910.8635" fill="none" rx="3" ry="3" style="stroke:#038048;stroke-width:1;"/></g><text fill="#000000" font-family="sans-serif" font-size="14" lengthAdjust="spacing" textLength="292.291" x="935.87" y="914.6545">state : NodeStatePtr &#171;immutable snapshot&#187;</text><g data-visibility-modifier="PUBLIC_FIELD"><ellipse cx="926.87" cy="927.3518" fill="none" rx="3" ry="3" style="stroke:#038048;stroke-width:1;"/></g><text fill="#000000" font-family="sans-serif" font-size="14" lengthAdjust="spacing" textLength="209.0225" x="935.87" y="931.1428">fetch_status : NodeFetchStatus</text></g><!--reverse link NodeService to NodeServiceImpl--><g class="link" data-entity-1="ent0001" data-entity-2="ent0008" data-link-type="extension" data-source-line="79" id="lnk12"><path codeLine="79" d="M802.01,131.34 C802.01,155.94 802.01,167.69 802.01,194.46" fill="none" id="NodeService-backto-NodeServiceImpl" style="stroke:#181818;stroke-width:1;stroke-dasharray:7,7;"/><polygon fill="none" points="802.01,113.34,796.01,131.34,808.01,131.34,802.01,113.34" style="stroke:#181818;stroke-width:1;stroke-linejoin:miter;stroke-miterlimit:10;"/></g><!--reverse link NodeModel to BaseNodeModel--><g class="link" data-entity-1="ent0003" data-entity-2="ent0004" data-link-type="extension" data-source-line="80" id="lnk13"><path codeLine="80" d="M600.6764,956.1716 C585.5064,962.3416 586.83,961.51 572.01,966.83 C499.34,992.88 417.49,1017.15 347.3,1036.46" fill="none" id="NodeModel-backto-BaseNodeModel" style="stroke:#181818;stroke-width:1;stroke-dasharray:7,7;"/><polygon fill="none" points="617.35,949.39,598.4158,950.6137,602.9369,961.7294,617.35,949.39" style="stroke:#181818;stroke-width:1;stroke-linejoin:miter;stroke-miterlimit:10;"/></g><!--reverse link BaseNodeModel to NodeModelImpl--><g class="link" data-entity-1="ent0004" data-entity-2="ent0009" data-link-type="extension" data-source-line="81" id="lnk14"><path codeLine="81" d="M166.5117,1009.526 C159.2317,952.726 157.79,879.03 194.01,811.28 C210.61,780.23 237.2,753.95 265.26,732.71" fill="none" id="BaseNodeModel-backto-NodeModelImpl" style="stroke:#181818;stroke-width:1;"/><polygon fill="none" points="168.8,1027.38,172.463,1008.7633,160.5604,1010.2888,168.8,1027.38" style="stroke:#181818;stroke-width:1;stroke-linejoin:miter;stroke-miterlimit:10;"/></g><!--link NodeRef to NodeModel--><g class="link" data-entity-1="ent0002" data-entity-2="ent0003" data-link-type="aggregation" data-source-line="82" id="lnk15"><path codeLine="82" d="M567.3,889.05 C588.06,889.05 592.01,889.05 612.07,889.05" fill="none" id="NodeRef-NodeModel" style="stroke:#181818;stroke-width:1;"/><polygon fill="none" points="555.3,889.05,561.3,893.05,567.3,889.05,561.3,885.05,555.3,889.05" style="stroke:#181818;stroke-width:1;stroke-linejoin:miter;stroke-miterlimit:10;"/><polygon fill="#181818" points="617.07,889.05,608.07,885.05,612.07,889.05,608.07,893.05,617.07,889.05" style="stroke:#181818;stroke-width:1;stroke-linejoin:miter;stroke-miterlimit:10;"/><text fill="#000000" font-family="sans-serif" font-size="13" lengthAdjust="spacing" textLength="26.6348" x="573.2" y="882.6184">pins</text><text fill="#000000" font-family="sans-serif" font-size="13" lengthAdjust="spacing" textLength="122.3511" x="486.9912" y="911.1613">shared_ptr&lt;const&gt;</text></g><!--link NodeServiceImpl to NodeModelRegistry--><g class="link" data-entity-1="ent0008" data-entity-2="ent0010" data-link-type="dependency" data-source-line="83" id="lnk16"><path codeLine="83" d="M639.43,340.15 C562.04,373.82 477.9349,410.4152 417.0949,436.8852" fill="none" id="NodeServiceImpl-to-NodeModelRegistry" style="stroke:#181818;stroke-width:1;"/><polygon fill="#181818" points="412.51,438.88,422.3586,438.9573,417.0949,436.8852,419.1669,431.6215,412.51,438.88" style="stroke:#181818;stroke-width:1;stroke-linejoin:miter;stroke-miterlimit:10;"/><text fill="#000000" font-family="sans-serif" font-size="13" lengthAdjust="spacing" textLength="32.6968" x="557.63" y="385.4484">owns</text></g><!--link NodeModelImpl to NodeModelRegistry--><g class="link" data-entity-1="ent0009" data-entity-2="ent0010" data-link-type="dependency" data-source-line="84" id="lnk17"><path codeLine="84" d="M368.34,601.64 C360.93,569.08 353.3702,535.8952 347.3902,509.6352" fill="none" id="NodeModelImpl-to-NodeModelRegistry" style="stroke:#181818;stroke-width:1;"/><polygon fill="#181818" points="346.28,504.76,344.3782,514.4235,347.3902,509.6352,352.1785,512.6472,346.28,504.76" style="stroke:#181818;stroke-width:1;stroke-linejoin:miter;stroke-miterlimit:10;"/><text fill="#000000" font-family="sans-serif" font-size="13" lengthAdjust="spacing" textLength="167.1528" x="362.01" y="568.3984">unregisters on destruction</text></g><!--link NodeModelRegistry to NodeModelImpl--><g class="link" data-entity-1="ent0010" data-entity-2="ent0009" data-link-type="dependency" data-source-line="85" id="lnk18"><path codeLine="85" d="M309.33,504.52 C295.01,523.74 282.75,548.91 292.01,571.83 C296.23,582.27 299.2165,588.2026 306.1365,597.4126" fill="none" id="NodeModelRegistry-to-NodeModelImpl" style="stroke:#181818;stroke-width:1;stroke-dasharray:7,7;"/><polygon fill="#181818" points="309.14,601.41,306.9317,591.8119,306.1365,597.4126,300.5358,596.6175,309.14,601.41" style="stroke:#181818;stroke-width:1;stroke-linejoin:miter;stroke-miterlimit:10;"/><text fill="#000000" font-family="sans-serif" font-size="13" lengthAdjust="spacing" textLength="56.9004" x="293.01" y="568.3984">weak_ptr</text></g><!--link NodeServiceImpl to NodeFetcher--><g class="link" data-entity-1="ent0008" data-entity-2="ent0011" data-link-type="dependency" data-source-line="86" id="lnk19"><path codeLine="86" d="M802.01,342.14 C802.01,373.7 802.01,404.23 802.01,429.96" fill="none" id="NodeServiceImpl-to-NodeFetcher" style="stroke:#181818;stroke-width:1;"/><polygon fill="#181818" points="802.01,434.96,806.01,425.96,802.01,429.96,798.01,425.96,802.01,434.96" style="stroke:#181818;stroke-width:1;stroke-linejoin:miter;stroke-miterlimit:10;"/><text fill="#000000" font-family="sans-serif" font-size="13" lengthAdjust="spacing" textLength="49.9688" x="803.01" y="385.4484">injected</text></g><!--link NodeServiceImpl to NodeRefObserver--><g class="link" data-entity-1="ent0008" data-entity-2="ent0005" data-link-type="dependency" data-source-line="87" id="lnk20"><path codeLine="87" d="M964.07,342.28 C1020.19,367.52 1077.3697,393.2296 1129.0797,416.4796" fill="none" id="NodeServiceImpl-to-NodeRefObserver" style="stroke:#181818;stroke-width:1;stroke-dasharray:7,7;"/><polygon fill="#181818" points="1133.64,418.53,1127.0719,411.1911,1129.0797,416.4796,1123.7912,418.4875,1133.64,418.53" style="stroke:#181818;stroke-width:1;stroke-linejoin:miter;stroke-miterlimit:10;"/><text fill="#000000" font-family="sans-serif" font-size="13" lengthAdjust="spacing" textLength="47.0806" x="1067.14" y="385.4484">notifies</text></g><!--link NodeModelImpl to NodeStateChangedEvent--><g class="link" data-entity-1="ent0009" data-entity-2="ent0006" data-link-type="dependency" data-source-line="88" id="lnk21"><path codeLine="88" d="M563.66,711.77 C663.31,737.51 788.66,772.56 898.01,811.28 C921.54,819.6 941.761,827.628 965.131,837.598" fill="none" id="NodeModelImpl-to-NodeStateChangedEvent" style="stroke:#181818;stroke-width:1;stroke-dasharray:7,7;"/><polygon fill="#181818" points="969.73,839.56,963.0214,832.3492,965.131,837.598,959.8822,839.7076,969.73,839.56" style="stroke:#181818;stroke-width:1;stroke-linejoin:miter;stroke-miterlimit:10;"/><text fill="#000000" font-family="sans-serif" font-size="13" lengthAdjust="spacing" textLength="60.5122" x="801.99" y="777.8484">publishes</text></g><!--link NodeModelImpl to NodeRef--><g class="link" data-entity-1="ent0009" data-entity-2="ent0002" data-link-type="dependency" data-source-line="89" id="lnk22"><path codeLine="89" d="M383.01,732.57 C383.01,757.17 383.01,780.45 383.01,806.09" fill="none" id="NodeModelImpl-to-NodeRef" style="stroke:#181818;stroke-width:1;"/><polygon fill="#181818" points="383.01,811.09,387.01,802.09,383.01,806.09,379.01,802.09,383.01,811.09" style="stroke:#181818;stroke-width:1;stroke-linejoin:miter;stroke-miterlimit:10;"/><text fill="#000000" font-family="sans-serif" font-size="13" lengthAdjust="spacing" textLength="129.4414" x="384.01" y="777.8484">pins fetched subtree</text><text fill="#000000" font-family="sans-serif" font-size="13" lengthAdjust="spacing" textLength="89.356" x="289.7855" y="800.5272">child_models_</text></g><?plantuml-src fLPBZzCm4BxdLuow4dIrstBWLaMHeB1e9M3H5hX6RZ9jJHCds4whvV7VcR6TrcbtuK0FRJhpUHxVF9pdC6yqmiUcn0NgdImGnD9OBGeh6sL0g1Bi1c7t4cJTLbYZie9LqyHifMg55ZKiHR5TwwPJvRof6WqND-uJ8Sn6bCrUgZMiH6KmsSWI0UlMFa2DzHArIHAfBEgLA8RH_4m0hjwXPTbOqLSkoqkOESmzhbYxw9Qcq7A9uo2yMnewZVhP9Qk_AFDt05d_XAgaw3uBivrJ7dRCBepyWRbDVYT9KGbZUfUGfZjHTGWR8gV2B7CnJchILZaVsmYDPTvQdHP4eNNdFh0sOs_2MWgbipZsYNmLMWfbMMM5NgCrvFm546_eudW1zg75lCILL9AP7xkWRz0M6vUFUrfGLJh3zbxjXRHYMM4QudLUIQ_jusV-HU7lqzAuN0w5yLOSOVuno2CNuxvWaIoWNZtD1caf42GQ2ZJZwNJAN93mSs299KScWZxAizV_8xU-tS4N-RKmE4pomhY0ypZ1YnMxo8-Qy-m2f11LnVDXSfOrmRKxqyVnNXgRdiIMdTCUQJtvTye5EQS-N6CvZlwytL7lN7gC7wQQI9L53sNPRHa1NEX14PxFR51Y61k81G4y69KpFGqEyc-OcAimpO6zsv9bp2W6YJFmoMew9-kwSqqDHedMR1eoml2u38zKWU9fYNknHXZjNewSsoX0ls9kQQyv3GsnnZKLGp-SpF6X8Uw3FlFmBMARYqhkCAz8pgS-t7-1LYhZ0QtVAxcFanDsbIU0mXA-TzYX1zv8LHwyk5b8KuLSwa8ZqM2ou3AimXWN4705jkceT8Q3wF6BLkoL7mXPNeEdwfeZuDeIGJ4Zpkf_yE4gwagOnpMa6FUDtlBwTye-jc8ZgpBNXo7FOx7Rfuwj7HQsqOTrHjPeeLkDw8ZkZNrih5mz3BgKoMcx9PM6IHbqpcE9zycm0vVhDUnHRA4MRMZPqBJSQYHCVTjwr90Nvl3ePpZ7VhvqRz3zTRURtu37_UsR-CwRNKJ4-JDpfec8U_hSONs-GTw0hRlIGrWKM7pDfh-cqzEXI8vxqAa7gp4PBihqrsGoRA6alowRIGQZqqin6qLNoSnFpEbCJkZWUN5cqEm3-DYkJq4xvJkODYuq2gXqLdVkrIOvXq-dsSaKp0wbVJAulfepgl8tQbGipw2ztNY1pq1nlqeypQG7dszFOgdlvKUo7mscPdHuMV7SmielTGYJymS0?></g></svg>