<svg xmlns="http://www.w3.org/2000/svg" xmlns:xlink="http://www.w3.org/1999/xlink" contentStyleType="text/css" data-diagram-type="CLASS" height="1021px" preserveAspectRatio="none" style="width:1418px;height:1021px;background:#FFFFFF;" version="1.1" viewBox="0 0 1418 1021" width="1418px" zoomAndPan="magnify"><?plantuml 1.2026.6?><defs/><g><!--cluster v3--><g class="cluster" data-qualified-name="v3" data-source-line="38" id="ent0005"><path d="M8.5,441.97 L27.041,441.97 A3.75,3.75 0 0 1 29.541,444.47 L36.541,464.4583 L974.5,464.4583 A2.5,2.5 0 0 1 977,466.9583 L977,1003.44 A2.5,2.5 0 0 1 974.5,1005.94 L8.5,1005.94 A2.5,2.5 0 0 1 6,1003.44 L6,444.47 A2.5,2.5 0 0 1 8.5,441.97" fill="none" style="stroke:#000000;stroke-width:1.5;"/><line style="stroke:#000000;stroke-width:1.5;" x1="6" x2="36.541" y1="464.4583" y2="464.4583"/><text fill="#000000" font-family="sans-serif" font-size="14" font-weight="700" lengthAdjust="spacing" textLength="17.541" x="10" y="457.5052">v3</text></g><!--class NodeServiceImpl--><g class="entity" data-qualified-name="v3.NodeServiceImpl" data-source-line="39" id="ent0006"><rect fill="#F1F1F1" height="146.9297" rx="2.5" ry="2.5" style="stroke:#181818;stroke-width:0.5;" width="324.6553" x="333.67" y="476.97"/><ellipse cx="435.3238" cy="492.97" fill="#ADD1B2" rx="11" ry="11" style="stroke:#181818;stroke-width:1;"/><path d="M437.797,499.1131 Q437.2159,499.4119 436.5767,499.5613 Q435.9376,499.7107 435.232,499.7107 Q432.7252,499.7107 431.4054,498.0589 Q430.0855,496.407 430.0855,493.2859 Q430.0855,490.1565 431.4054,488.5047 Q432.7252,486.8528 435.232,486.8528 Q435.9376,486.8528 436.585,487.0022 Q437.2325,487.1516 437.797,487.4505 L437.797,490.1731 Q437.1661,489.5921 436.5726,489.3223 Q435.9791,489.0525 435.3482,489.0525 Q434.0035,489.0525 433.3187,490.1192 Q432.6339,491.1858 432.6339,493.2859 Q432.6339,495.3777 433.3187,496.4444 Q434.0035,497.511 435.3482,497.511 Q435.9791,497.511 436.5726,497.2412 Q437.1661,496.9715 437.797,496.3904 Z " fill="#000000"/><text fill="#000000" font-family="sans-serif" font-size="14" lengthAdjust="spacing" textLength="112.8477" x="455.8238" y="498.261">NodeServiceImpl</text><line style="stroke:#181818;stroke-width:0.5;" x1="334.67" x2="657.3253" y1="508.97" y2="508.97"/><g data-visibility-modifier="PRIVATE_FIELD"><rect fill="none" height="6" style="stroke:#C82930;stroke-width:1;" width="6" x="341.67" y="519.7141"/></g><text fill="#000000" font-family="sans-serif" font-size="14" lengthAdjust="spacing" textLength="298.6553" x="353.67" y="526.5052">registry_ : shared_ptr&lt;NodeModelRegistry&gt;</text><g data-visibility-modifier="PRIVATE_FIELD"><rect fill="none" height="6" style="stroke:#C82930;stroke-width:1;" width="6" x="341.67" y="536.2024"/></g><text fill="#000000" font-family="sans-serif" font-size="14" lengthAdjust="spacing" textLength="181.9453" x="353.67" y="542.9934">keep_alive_list_ : MRU pins</text><g data-visibility-modifier="PRIVATE_FIELD"><rect fill="none" height="6" style="stroke:#C82930;stroke-width:1;" width="6" x="341.67" y="552.6907"/></g><text fill="#000000" font-family="sans-serif" font-size="14" lengthAdjust="spacing" textLength="258.0088" x="353.67" y="559.4817">pending_fetch_nodes_ : pinned queue</text><line style="stroke:#181818;stroke-width:0.5;" x1="334.67" x2="657.3253" y1="566.4348" y2="566.4348"/><g data-visibility-modifier="PRIVATE_METHOD"><rect fill="#F24D5C" height="6" style="stroke:#C82930;stroke-width:1;" width="6" x="341.67" y="577.179"/></g><text fill="#000000" font-family="sans-serif" font-size="14" lengthAdjust="spacing" textLength="237.2822" x="353.67" y="583.97">FindNodeModel(id) &#171;never creates&#187;</text><g data-visibility-modifier="PRIVATE_METHOD"><rect fill="#F24D5C" height="6" style="stroke:#C82930;stroke-width:1;" width="6" x="341.67" y="593.6673"/></g><text fill="#000000" font-family="sans-serif" font-size="14" lengthAdjust="spacing" textLength="298.04" x="353.67" y="600.4583">GetNodeModel(id) &#171;creates + touches MRU&#187;</text><g data-visibility-modifier="PRIVATE_METHOD"><rect fill="#F24D5C" height="6" style="stroke:#C82930;stroke-width:1;" width="6" x="341.67" y="610.1555"/></g><text fill="#000000" font-family="sans-serif" font-size="14" lengthAdjust="spacing" textLength="182.3555" x="353.67" y="616.9466">SpawnFetch(id, status, pin)</text></g><!--class NodeModelImpl--><g class="entity" data-qualified-name="v3.NodeModelImpl" data-source-line="48" id="ent0007"><rect fill="#F1F1F1" height="130.4414" rx="2.5" ry="2.5" style="stroke:#181818;stroke-width:0.5;" width="324.6553" x="636.67" y="700.9"/><ellipse cx="741.3316" cy="716.9" fill="#ADD1B2" rx="11" ry="11" style="stroke:#181818;stroke-width:1;"/><path d="M743.8048,723.0431 Q743.2237,723.3419 742.5846,723.4913 Q741.9454,723.6407 741.2398,723.6407 Q738.733,723.6407 737.4132,721.9889 Q736.0933,720.337 736.0933,717.2159 Q736.0933,714.0865 737.4132,712.4347 Q738.733,710.7828 741.2398,710.7828 Q741.9454,710.7828 742.5929,710.9322 Q743.2403,711.0816 743.8048,711.3805 L743.8048,714.1031 Q743.1739,713.5221 742.5804,713.2523 Q741.9869,712.9825 741.356,712.9825 Q740.0113,712.9825 739.3265,714.0492 Q738.6417,715.1158 738.6417,717.2159 Q738.6417,719.3077 739.3265,720.3744 Q740.0113,721.441 741.356,721.441 Q741.9869,721.441 742.5804,721.1712 Q743.1739,720.9015 743.8048,720.3204 Z " fill="#000000"/><text fill="#000000" font-family="sans-serif" font-size="14" lengthAdjust="spacing" textLength="106.832" x="761.8316" y="722.191">NodeModelImpl</text><line style="stroke:#181818;stroke-width:0.5;" x1="637.67" x2="960.3253" y1="732.9" y2="732.9"/><g data-visibility-modifier="PRIVATE_FIELD"><rect fill="none" height="6" style="stroke:#C82930;stroke-width:1;" width="6" x="644.67" y="743.6441"/></g><text fill="#000000" font-family="sans-serif" font-size="14" lengthAdjust="spacing" textLength="298.6553" x="656.67" y="750.4352">registry_ : shared_ptr&lt;NodeModelRegistry&gt;</text><g data-visibility-modifier="PRIVATE_FIELD"><rect fill="none" height="6" style="stroke:#C82930;stroke-width:1;" width="6" x="644.67" y="760.1324"/></g><text fill="#000000" font-family="sans-serif" font-size="14" lengthAdjust="spacing" textLength="274.8594" x="656.67" y="766.9234">node_state_ : NodeState &#171;working state&#187;</text><g data-visibility-modifier="PRIVATE_FIELD"><rect fill="none" height="6" style="stroke:#C82930;stroke-width:1;" width="6" x="644.67" y="776.6207"/></g><text fill="#000000" font-family="sans-serif" font-size="14" lengthAdjust="spacing" textLength="117.5645" x="656.67" y="783.4117">child_references_</text><g data-visibility-modifier="PRIVATE_FIELD"><rect fill="none" height="6" style="stroke:#C82930;stroke-width:1;" width="6" x="644.67" y="793.109"/></g><text fill="#000000" font-family="sans-serif" font-size="14" lengthAdjust="spacing" textLength="279.8496" x="656.67" y="799.9">status_ / fetch_status_ / fetch_callbacks_</text><line style="stroke:#181818;stroke-width:0.5;" x1="637.67" x2="960.3253" y1="806.8531" y2="806.8531"/><g data-visibility-modifier="PRIVATE_METHOD"><rect fill="#F24D5C" height="6" style="stroke:#C82930;stroke-width:1;" width="6" x="644.67" y="817.5973"/></g><text fill="#000000" font-family="sans-serif" font-size="14" lengthAdjust="spacing" textLength="294.1982" x="656.67" y="824.3883">NotifyStateChanged() &#171;publishes snapshot&#187;</text></g><!--class NodeModelRegistry--><g class="entity" data-qualified-name="v3.NodeModelRegistry" data-source-line="56" id="ent0008"><rect fill="#F1F1F1" height="65.1094" rx="2.5" ry="2.5" style="stroke:#181818;stroke-width:0.5;" width="379.8213" x="400.09" y="924.83"/><ellipse cx="519.8932" cy="945.1405" fill="#ADD1B2" rx="11" ry="11" style="stroke:#181818;stroke-width:1;"/><path d="M522.3664,951.2836 Q521.7853,951.5824 521.1462,951.7319 Q520.507,951.8813 519.8014,951.8813 Q517.2946,951.8813 515.9748,950.2294 Q514.6549,948.5776 514.6549,945.4565 Q514.6549,942.3271 515.9748,940.6752 Q517.2946,939.0234 519.8014,939.0234 Q520.507,939.0234 521.1545,939.1728 Q521.8019,939.3222 522.3664,939.621 L522.3664,942.3437 Q521.7355,941.7626 521.142,941.4928 Q520.5485,941.2231 519.9176,941.2231 Q518.5729,941.2231 517.8881,942.2897 Q517.2033,943.3564 517.2033,945.4565 Q517.2033,947.5483 517.8881,948.6149 Q518.5729,949.6816 519.9176,949.6816 Q520.5485,949.6816 521.142,949.4118 Q521.7355,949.142 522.3664,948.561 Z " fill="#000000"/><text fill="#000000" font-family="sans-serif" font-size="12" font-style="italic" lengthAdjust="spacing" textLength="118.2598" x="547.1208" y="941.4316">&#171;shared, weak map&#187;</text><text fill="#000000" font-family="sans-serif" font-size="14" lengthAdjust="spacing" textLength="131.7148" x="540.3932" y="957.498">NodeModelRegistry</text><line style="stroke:#181818;stroke-width:0.5;" x1="401.09" x2="778.9113" y1="965.4511" y2="965.4511"/><g data-visibility-modifier="PUBLIC_FIELD"><ellipse cx="411.09" cy="979.1952" fill="none" rx="3" ry="3" style="stroke:#038048;stroke-width:1;"/></g><text fill="#000000" font-family="sans-serif" font-size="14" lengthAdjust="spacing" textLength="353.8213" x="420.09" y="982.9863">nodes : map&lt;NodeId, weak_ptr&lt;NodeModelImpl&gt;&gt;</text></g><!--class NodeFetcher--><g class="entity" data-qualified-name="v3.NodeFetcher" data-source-line="60" id="ent0009"><rect fill="#F1F1F1" height="72.9766" rx="2.5" ry="2.5" style="stroke:#181818;stroke-width:0.5;" width="475.3672" x="126.32" y="729.63"/><ellipse cx="317.0119" cy="745.63" fill="#B4A7E5" rx="11" ry="11" style="stroke:#181818;stroke-width:1;"/><path d="M313.4396,741.8951 L313.4396,739.7369 L320.819,739.7369 L320.819,741.8951 L318.3537,741.8951 L318.3537,749.9718 L320.819,749.9718 L320.819,752.13 L313.4396,752.13 L313.4396,749.9718 L315.905,749.9718 L315.905,741.8951 Z " fill="#000000"/><text fill="#000000" font-family="sans-serif" font-size="14" font-style="italic" lengthAdjust="spacing" textLength="85.4834" x="337.5119" y="750.921">NodeFetcher</text><line style="stroke:#181818;stroke-width:0.5;" x1="127.32" x2="600.6872" y1="761.63" y2="761.63"/><g data-visibility-modifier="PUBLIC_METHOD"><ellipse cx="137.32" cy="775.3741" fill="#84BE84" rx="3" ry="3" style="stroke:#038048;stroke-width:1;"/></g><text fill="#000000" font-family="sans-serif" font-size="14" lengthAdjust="spacing" textLength="344.8457" x="146.32" y="779.1652">FetchNode(id) : Awaitable&lt;StatusOr&lt;NodeState&gt;&gt;</text><g data-visibility-modifier="PUBLIC_METHOD"><ellipse cx="137.32" cy="791.8624" fill="#84BE84" rx="3" ry="3" style="stroke:#038048;stroke-width:1;"/></g><text fill="#000000" font-family="sans-serif" font-size="14" lengthAdjust="spacing" textLength="449.3672" x="146.32" y="795.6534">FetchChildren(id) : Awaitable&lt;StatusOr&lt;ReferenceDescriptions&gt;&gt;</text></g><!--class NodeService--><g class="entity" data-qualified-name="NodeService" data-source-line="6" id="ent0001"><rect fill="#F1F1F1" height="138.9297" rx="2.5" ry="2.5" style="stroke:#181818;stroke-width:0.5;" width="417.1045" x="287.45" y="256.04"/><ellipse cx="450.3094" cy="272.04" fill="#B4A7E5" rx="11" ry="11" style="stroke:#181818;stroke-width:1;"/><path d="M446.7371,268.3051 L446.7371,266.1469 L454.1165,266.1469 L454.1165,268.3051 L451.6512,268.3051 L451.6512,276.3818 L454.1165,276.3818 L454.1165,278.54 L446.7371,278.54 L446.7371,276.3818 L449.2024,276.3818 L449.2024,268.3051 Z " fill="#000000"/><text fill="#000000" font-family="sans-serif" font-size="14" font-style="italic" lengthAdjust="spacing" textLength="82.8857" x="470.8094" y="277.331">NodeService</text><line style="stroke:#181818;stroke-width:0.5;" x1="288.45" x2="703.5545" y1="288.04" y2="288.04"/><g data-visibility-modifier="PUBLIC_METHOD"><ellipse cx="298.45" cy="301.7841" fill="#84BE84" rx="3" ry="3" style="stroke:#038048;stroke-width:1;"/></g><text fill="#000000" font-family="sans-serif" font-size="14" lengthAdjust="spacing" textLength="192.2129" x="307.45" y="305.5752">GetNode(node_id) : NodeRef</text><g data-visibility-modifier="PUBLIC_METHOD"><ellipse cx="298.45" cy="318.2724" fill="#84BE84" rx="3" ry="3" style="stroke:#038048;stroke-width:1;"/></g><text fill="#000000" font-family="sans-serif" font-size="14" lengthAdjust="spacing" textLength="335.583" x="307.45" y="322.0634">SubscribeModelChanged(cb) : scoped_connection</text><g data-visibility-modifier="PUBLIC_METHOD"><ellipse cx="298.45" cy="334.7607" fill="#84BE84" rx="3" ry="3" style="stroke:#038048;stroke-width:1;"/></g><text fill="#000000" font-family="sans-serif" font-size="14" lengthAdjust="spacing" textLength="391.1045" x="307.45" y="338.5517">SubscribeNodeSemanticChanged(cb) : scoped_connection</text><g data-visibility-modifier="PUBLIC_METHOD"><ellipse cx="298.45" cy="351.249" fill="#84BE84" rx="3" ry="3" style="stroke:#038048;stroke-width:1;"/></g><text fill="#000000" font-family="sans-serif" font-size="14" lengthAdjust="spacing" textLength="322.6973" x="307.45" y="355.04">SubscribeNodeFetched(cb) : scoped_connection</text><g data-visibility-modifier="PUBLIC_METHOD"><ellipse cx="298.45" cy="367.7373" fill="#84BE84" rx="3" ry="3" style="stroke:#038048;stroke-width:1;"/></g><text fill="#000000" font-family="sans-serif" font-size="14" lengthAdjust="spacing" textLength="363.3643" x="307.45" y="371.5283">SubscribeNodeStateChanged(cb) : scoped_connection</text><g data-visibility-modifier="PUBLIC_METHOD"><ellipse cx="298.45" cy="384.2255" fill="#84BE84" rx="3" ry="3" style="stroke:#038048;stroke-width:1;"/></g><text fill="#000000" font-family="sans-serif" font-size="14" lengthAdjust="spacing" textLength="212.0986" x="307.45" y="388.0166">GetPendingTaskCount() : size_t</text></g><!--class NodeRef--><g class="entity" data-qualified-name="NodeRef" data-source-line="15" id="ent0002"><rect fill="#F1F1F1" height="172.0391" rx="2.5" ry="2.5" style="stroke:#181818;stroke-width:0.5;" width="389.3643" x="301.32" y="7"/><ellipse cx="463.0754" cy="27.3105" fill="#ADD1B2" rx="11" ry="11" style="stroke:#181818;stroke-width:1;"/><path d="M465.5485,33.4536 Q464.9675,33.7524 464.3283,33.9019 Q463.6891,34.0513 462.9836,34.0513 Q460.4767,34.0513 459.1569,32.3994 Q457.8371,30.7476 457.8371,27.6265 Q457.8371,24.4971 459.1569,22.8452 Q460.4767,21.1934 462.9836,21.1934 Q463.6891,21.1934 464.3366,21.3428 Q464.9841,21.4922 465.5485,21.791 L465.5485,24.5137 Q464.9177,23.9326 464.3242,23.6628 Q463.7306,23.3931 463.0998,23.3931 Q461.7551,23.3931 461.0702,24.4597 Q460.3854,25.5264 460.3854,27.6265 Q460.3854,29.7183 461.0702,30.7849 Q461.7551,31.8516 463.0998,31.8516 Q463.7306,31.8516 464.3242,31.5818 Q464.9177,31.312 465.5485,30.731 Z " fill="#000000"/><text fill="#000000" font-family="sans-serif" font-size="12" font-style="italic" lengthAdjust="spacing" textLength="49.4766" x="487.5138" y="23.6016">&#171;cursor&#187;</text><text fill="#000000" font-family="sans-serif" font-size="14" lengthAdjust="spacing" textLength="57.3535" x="483.5754" y="39.668">NodeRef</text><line style="stroke:#181818;stroke-width:0.5;" x1="302.32" x2="689.6843" y1="47.6211" y2="47.6211"/><g data-visibility-modifier="PRIVATE_FIELD"><rect fill="none" height="6" style="stroke:#C82930;stroke-width:1;" width="6" x="309.32" y="58.3652"/></g><text fill="#000000" font-family="sans-serif" font-size="14" lengthAdjust="spacing" textLength="81.5459" x="321.32" y="65.1563">id_ : NodeId</text><g data-visibility-modifier="PRIVATE_FIELD"><rect fill="none" height="6" style="stroke:#C82930;stroke-width:1;" width="6" x="309.32" y="74.8535"/></g><text fill="#000000" font-family="sans-serif" font-size="14" lengthAdjust="spacing" textLength="259.5674" x="321.32" y="81.6445">service_ : NodeService* &#171;non-owning&#187;</text><line style="stroke:#181818;stroke-width:0.5;" x1="302.32" x2="689.6843" y1="88.5977" y2="88.5977"/><g data-visibility-modifier="PUBLIC_METHOD"><ellipse cx="312.32" cy="102.3418" fill="#84BE84" rx="3" ry="3" style="stroke:#038048;stroke-width:1;"/></g><text fill="#000000" font-family="sans-serif" font-size="14" lengthAdjust="spacing" textLength="142.085" x="321.32" y="106.1328">attribute(id) : Variant</text><g data-visibility-modifier="PUBLIC_METHOD"><ellipse cx="312.32" cy="118.8301" fill="#84BE84" rx="3" ry="3" style="stroke:#038048;stroke-width:1;"/></g><text fill="#000000" font-family="sans-serif" font-size="14" lengthAdjust="spacing" textLength="252.5879" x="321.32" y="122.6211">targets() / parent() / type_definition()</text><g data-visibility-modifier="PUBLIC_METHOD"><ellipse cx="312.32" cy="135.3184" fill="#84BE84" rx="3" ry="3" style="stroke:#038048;stroke-width:1;"/></g><text fill="#000000" font-family="sans-serif" font-size="14" lengthAdjust="spacing" textLength="317.7822" x="321.32" y="139.1094">Fetch(NodeFetchStatus) : Awaitable&lt;NodeRef&gt;</text><g data-visibility-modifier="PUBLIC_METHOD"><ellipse cx="312.32" cy="151.8066" fill="#84BE84" rx="3" ry="3" style="stroke:#038048;stroke-width:1;"/></g><text fill="#000000" font-family="sans-serif" font-size="14" lengthAdjust="spacing" textLength="190.5039" x="321.32" y="155.5977">StartFetch(NodeFetchStatus)</text><g data-visibility-modifier="PUBLIC_METHOD"><ellipse cx="312.32" cy="168.2949" fill="#84BE84" rx="3" ry="3" style="stroke:#038048;stroke-width:1;"/></g><text fill="#000000" font-family="sans-serif" font-size="14" lengthAdjust="spacing" textLength="363.3643" x="321.32" y="172.0859">SubscribeNodeStateChanged(cb) : scoped_connection</text></g><!--class NodeSignals--><g class="entity" data-qualified-name="NodeSignals" data-source-line="25" id="ent0003"><rect fill="#F1F1F1" height="114.5742" rx="2.5" ry="2.5" style="stroke:#181818;stroke-width:0.5;" width="406.3789" x="996.81" y="708.83"/><ellipse cx="1147.0571" cy="729.1405" fill="#ADD1B2" rx="11" ry="11" style="stroke:#181818;stroke-width:1;"/><path d="M1149.5302,735.2836 Q1148.9492,735.5824 1148.31,735.7319 Q1147.6708,735.8813 1146.9653,735.8813 Q1144.4584,735.8813 1143.1386,734.2294 Q1141.8188,732.5776 1141.8188,729.4565 Q1141.8188,726.3271 1143.1386,724.6752 Q1144.4584,723.0234 1146.9653,723.0234 Q1147.6708,723.0234 1148.3183,723.1728 Q1148.9658,723.3222 1149.5302,723.621 L1149.5302,726.3437 Q1148.8994,725.7626 1148.3058,725.4928 Q1147.7123,725.2231 1147.0815,725.2231 Q1145.7368,725.2231 1145.0519,726.2897 Q1144.3671,727.3564 1144.3671,729.4565 Q1144.3671,731.5483 1145.0519,732.6149 Q1145.7368,733.6816 1147.0815,733.6816 Q1147.7123,733.6816 1148.3058,733.4118 Q1148.8994,733.142 1149.5302,732.561 Z " fill="#000000"/><text fill="#000000" font-family="sans-serif" font-size="12" font-style="italic" lengthAdjust="spacing" textLength="101.3848" x="1165.5571" y="725.4316">&#171;boost::signals2&#187;</text><text fill="#000000" font-family="sans-serif" font-size="14" lengthAdjust="spacing" textLength="83.4736" x="1174.5126" y="741.498">NodeSignals</text><line style="stroke:#181818;stroke-width:0.5;" x1="997.81" x2="1402.1889" y1="749.4511" y2="749.4511"/><g data-visibility-modifier="PUBLIC_FIELD"><ellipse cx="1007.81" cy="763.1952" fill="none" rx="3" ry="3" style="stroke:#038048;stroke-width:1;"/></g><text fill="#000000" font-family="sans-serif" font-size="14" lengthAdjust="spacing" textLength="312.0742" x="1016.81" y="766.9863">model_changed : signal&lt;ModelChangeEvent&gt;</text><g data-visibility-modifier="PUBLIC_FIELD"><ellipse cx="1007.81" cy="779.6835" fill="none" rx="3" ry="3" style="stroke:#038048;stroke-width:1;"/></g><text fill="#000000" font-family="sans-serif" font-size="14" lengthAdjust="spacing" textLength="290.7256" x="1016.81" y="783.4745">node_semantic_changed : signal&lt;NodeId&gt;</text><g data-visibility-modifier="PUBLIC_FIELD"><ellipse cx="1007.81" cy="796.1718" fill="none" rx="3" ry="3" style="stroke:#038048;stroke-width:1;"/></g><text fill="#000000" font-family="sans-serif" font-size="14" lengthAdjust="spacing" textLength="292.6055" x="1016.81" y="799.9628">node_fetched : signal&lt;NodeFetchedEvent&gt;</text><g data-visibility-modifier="PUBLIC_FIELD"><ellipse cx="1007.81" cy="812.6601" fill="none" rx="3" ry="3" style="stroke:#038048;stroke-width:1;"/></g><text fill="#000000" font-family="sans-serif" font-size="14" lengthAdjust="spacing" textLength="380.3789" x="1016.81" y="816.4511">node_state_changed : signal&lt;NodeStateChangedEvent&gt;</text></g><!--class NodeStateChangedEvent--><g class="entity" data-qualified-name="NodeStateChangedEvent" data-source-line="32" id="ent0004"><rect fill="#F1F1F1" height="98.0859" rx="2.5" ry="2.5" style="stroke:#181818;stroke-width:0.5;" width="318.291" x="992.85" y="908.34"/><ellipse cx="1064.8495" cy="928.6505" fill="#ADD1B2" rx="11" ry="11" style="stroke:#181818;stroke-width:1;"/><path d="M1067.3227,934.7936 Q1066.7416,935.0924 1066.1024,935.2419 Q1065.4633,935.3913 1064.7577,935.3913 Q1062.2509,935.3913 1060.9311,933.7394 Q1059.6112,932.0876 1059.6112,928.9665 Q1059.6112,925.8371 1060.9311,924.1852 Q1062.2509,922.5334 1064.7577,922.5334 Q1065.4633,922.5334 1066.1107,922.6828 Q1066.7582,922.8322 1067.3227,923.131 L1067.3227,925.8537 Q1066.6918,925.2726 1066.0983,925.0028 Q1065.5048,924.7331 1064.8739,924.7331 Q1063.5292,924.7331 1062.8444,925.7997 Q1062.1596,926.8664 1062.1596,928.9665 Q1062.1596,931.0583 1062.8444,932.1249 Q1063.5292,933.1916 1064.8739,933.1916 Q1065.5048,933.1916 1066.0983,932.9218 Q1066.6918,932.652 1067.3227,932.071 Z " fill="#000000"/><text fill="#000000" font-family="sans-serif" font-size="12" font-style="italic" lengthAdjust="spacing" textLength="44.0918" x="1146.1996" y="924.9416">&#171;event&#187;</text><text fill="#000000" font-family="sans-serif" font-size="14" lengthAdjust="spacing" textLength="165.792" x="1085.3495" y="941.008">NodeStateChangedEvent</text><line style="stroke:#181818;stroke-width:0.5;" x1="993.85" x2="1310.141" y1="948.9611" y2="948.9611"/><g data-visibility-modifier="PUBLIC_FIELD"><ellipse cx="1003.85" cy="962.7052" fill="none" rx="3" ry="3" style="stroke:#038048;stroke-width:1;"/></g><text fill="#000000" font-family="sans-serif" font-size="14" lengthAdjust="spacing" textLength="115.4453" x="1012.85" y="966.4963">node_id : NodeId</text><g data-visibility-modifier="PUBLIC_FIELD"><ellipse cx="1003.85" cy="979.1935" fill="none" rx="3" ry="3" style="stroke:#038048;stroke-width:1;"/></g><text fill="#000000" font-family="sans-serif" font-size="14" lengthAdjust="spacing" textLength="292.291" x="1012.85" y="982.9845">state : NodeStatePtr &#171;immutable snapshot&#187;</text><g data-visibility-modifier="PUBLIC_FIELD"><ellipse cx="1003.85" cy="995.6818" fill="none" rx="3" ry="3" style="stroke:#038048;stroke-width:1;"/></g><text fill="#000000" font-family="sans-serif" font-size="14" lengthAdjust="spacing" textLength="209.0225" x="1012.85" y="999.4728">fetch_status : NodeFetchStatus</text></g><!--reverse link NodeService to NodeServiceImpl--><g class="link" data-entity-1="ent0001" data-entity-2="ent0006" data-link-type="extension" data-source-line="66" id="lnk10"><path codeLine="66" d="M496,413.21 C496,439.05 496,450.51 496,476.71" fill="none" id="NodeService-backto-NodeServiceImpl" style="stroke:#181818;stroke-width:1;stroke-dasharray:7,7;"/><polygon fill="none" points="496,395.21,490,413.21,502,413.21,496,395.21" style="stroke:#181818;stroke-width:1;stroke-linejoin:miter;stroke-miterlimit:10;"/></g><!--link NodeRef to NodeService--><g class="link" data-entity-1="ent0002" data-entity-2="ent0001" data-link-type="dependency" data-source-line="67" id="lnk11"><path codeLine="67" d="M496,179.52 C496,204.63 496,226.76 496,250.69" fill="none" id="NodeRef-to-NodeService" style="stroke:#181818;stroke-width:1;stroke-dasharray:7,7;"/><polygon fill="#181818" points="496,255.69,500,246.69,496,250.69,492,246.69,496,255.69" style="stroke:#181818;stroke-width:1;stroke-linejoin:miter;stroke-miterlimit:10;"/><text fill="#000000" font-family="sans-serif" font-size="13" lengthAdjust="spacing" textLength="167.7495" x="497" y="222.6084">forwards to &#171;non-owning&#187;</text></g><!--link NodeServiceImpl to NodeModelImpl--><g class="link" data-entity-1="ent0006" data-entity-2="ent0007" data-link-type="dependency" data-source-line="68" id="lnk12"><path codeLine="68" d="M599.43,624.38 C634.57,649.16 669.4839,673.7783 703.6139,697.8483" fill="none" id="NodeServiceImpl-to-NodeModelImpl" style="stroke:#181818;stroke-width:1;"/><polygon fill="#181818" points="707.7,700.73,702.6504,692.2741,703.6139,697.8483,698.0397,698.8118,707.7,700.73" style="stroke:#181818;stroke-width:1;stroke-linejoin:miter;stroke-miterlimit:10;"/><text fill="#000000" font-family="sans-serif" font-size="13" lengthAdjust="spacing" textLength="131.4409" x="657.59" y="667.4684">owns per-node state</text></g><!--link NodeServiceImpl to NodeModelRegistry--><g class="link" data-entity-1="ent0006" data-entity-2="ent0008" data-link-type="dependency" data-source-line="69" id="lnk13"><path codeLine="69" d="M333.23,564.46 C241.23,581.14 133.27,618.38 75,700.9 C41.56,748.26 39.17,785.77 75,831.34 C115.48,882.83 265.2833,915.0017 394.6733,934.0517" fill="none" id="NodeServiceImpl-to-NodeModelRegistry" style="stroke:#181818;stroke-width:1;"/><polygon fill="#181818" points="399.62,934.78,391.2986,929.5117,394.6733,934.0517,390.1334,937.4264,399.62,934.78" style="stroke:#181818;stroke-width:1;stroke-linejoin:miter;stroke-miterlimit:10;"/><text fill="#000000" font-family="sans-serif" font-size="13" lengthAdjust="spacing" textLength="32.6968" x="76" y="771.1884">owns</text></g><!--link NodeModelImpl to NodeModelRegistry--><g class="link" data-entity-1="ent0007" data-entity-2="ent0008" data-link-type="dependency" data-source-line="70" id="lnk14"><path codeLine="70" d="M636.26,826.23 C613.05,837.74 594.49,849.82 587,861.34 C575.04,879.75 575.3179,899.7894 579.3079,919.4994" fill="none" id="NodeModelImpl-to-NodeModelRegistry" style="stroke:#181818;stroke-width:1;"/><polygon fill="#181818" points="580.3,924.4,582.4348,914.7853,579.3079,919.4994,574.5938,916.3726,580.3,924.4" style="stroke:#181818;stroke-width:1;stroke-linejoin:miter;stroke-miterlimit:10;"/><text fill="#000000" font-family="sans-serif" font-size="13" lengthAdjust="spacing" textLength="167.1528" x="588" y="874.9084">unregisters on destruction</text></g><!--link NodeModelRegistry to NodeModelImpl--><g class="link" data-entity-1="ent0008" data-entity-2="ent0007" data-link-type="dependency" data-source-line="71" id="lnk15"><path codeLine="71" d="M693.99,924.52 C718.18,913.11 742.07,898.03 760,878.34 C771.92,865.26 778.6046,853.045 784.3846,836.345" fill="none" id="NodeModelRegistry-to-NodeModelImpl" style="stroke:#181818;stroke-width:1;stroke-dasharray:7,7;"/><polygon fill="#181818" points="786.02,831.62,779.2964,838.8167,784.3846,836.345,786.8564,841.4333,786.02,831.62" style="stroke:#181818;stroke-width:1;stroke-linejoin:miter;stroke-miterlimit:10;"/><text fill="#000000" font-family="sans-serif" font-size="13" lengthAdjust="spacing" textLength="56.9004" x="772.38" y="874.9084">weak_ptr</text></g><!--link NodeServiceImpl to NodeFetcher--><g class="link" data-entity-1="ent0006" data-entity-2="ent0009" data-link-type="dependency" data-source-line="72" id="lnk16"><path codeLine="72" d="M450.94,624.38 C429.06,659.8 406.3779,696.5163 388.7279,725.0863" fill="none" id="NodeServiceImpl-to-NodeFetcher" style="stroke:#181818;stroke-width:1;"/><polygon fill="#181818" points="386.1,729.34,394.2332,723.7856,388.7279,725.0863,387.4272,719.581,386.1,729.34" style="stroke:#181818;stroke-width:1;stroke-linejoin:miter;stroke-miterlimit:10;"/><text fill="#000000" font-family="sans-serif" font-size="13" lengthAdjust="spacing" textLength="49.9688" x="431" y="667.4684">injected</text></g><!--link NodeServiceImpl to NodeSignals--><g class="link" data-entity-1="ent0006" data-entity-2="ent0003" data-link-type="dependency" data-source-line="73" id="lnk17"><path codeLine="73" d="M658.4,600.73 C764.28,632.87 898.0055,673.4578 1008.4455,706.9778" fill="none" id="NodeServiceImpl-to-NodeSignals" style="stroke:#181818;stroke-width:1;"/><polygon fill="#181818" points="1013.23,708.43,1005.7797,701.9885,1008.4455,706.9778,1003.4562,709.6437,1013.23,708.43" style="stroke:#181818;stroke-width:1;stroke-linejoin:miter;stroke-miterlimit:10;"/><text fill="#000000" font-family="sans-serif" font-size="13" lengthAdjust="spacing" textLength="34.6265" x="870.11" y="667.4684">emits</text></g><!--link NodeModelImpl to NodeStateChangedEvent--><g class="link" data-entity-1="ent0007" data-entity-2="ent0004" data-link-type="dependency" data-source-line="74" id="lnk18"><path codeLine="74" d="M919.5,831.73 C966.03,856.68 1013.9533,882.3776 1057.1733,905.5476" fill="none" id="NodeModelImpl-to-NodeStateChangedEvent" style="stroke:#181818;stroke-width:1;stroke-dasharray:7,7;"/><polygon fill="#181818" points="1061.58,907.91,1055.5379,900.1323,1057.1733,905.5476,1051.758,907.183,1061.58,907.91" style="stroke:#181818;stroke-width:1;stroke-linejoin:miter;stroke-miterlimit:10;"/><text fill="#000000" font-family="sans-serif" font-size="13" lengthAdjust="spacing" textLength="60.5122" x="997.63" y="874.9084">publishes</text></g><?plantuml-src fLPDRzim3BtxLmZTOTdIfC1w2m83GxOEFRGhacrNGvQOH8ijQPAS8FluxwC-dDXfCwnR3qKjFehauoFLbsIc391xnM41PYiO45fQPoXpGabBgEJ4hO5ihuceTGKrI4UzQPpPZP2Q6bgJahBDogX6yfcgb24lRi9F1s7NbAkTa2kof9M5R2qu4AYrsvCQwXACpJ8X7PWbPVriVcI433-0ysS3YRyAmL-HIS3COUcjYwQqp8WIxl2icgsfN04ViDB3B5CQUC6Kb11AwZd4G3MLJh3d-js0O-ldn47Uu2-2OAqF83bozOdQpGnPTOC05j-XSDclB6CLjRObW4odh35McJmFN8q4Bn8zjzn_sqXaUvXuVOr-KicHsacCbES-CdKEasqS32B5NwWHI8qtEMfMu2mcSaMmen1okY9khw7Wi1HI-FG7hpms43CuKEJhRgo_x-sE2aVB2gOfzn0LxSOzxVDl7FOOMeYLHCLXjQLIraqcDXwyINGDQw-PWiKx0ytUFkr8wVqMomsf1ldPf9V7Ff7p8t8P5T879DcSNkeBU_h6Rit9gr_XgHrhXO1B5QQXwOfY6EArYl1_FpY3VgAkcz0XOYNLTgrSL4Qe92JPsEJLwPFFH-CAe2iW5zlhYn2sas1Kt2skZs11JHfO2LmoUozAN0q66wYT2UK6ukV9daVu1a0Nj19RA2eyzrvtyyz42saZGCU1YOmNlc3hGGYGIEUt1Xg8m1iX-I5Aa3cE0R9b23E0DDWyXKmRfujB238aJZNOG-kJQF4BJNSogbZmInAfklGPU1KZGLr6mgt_mKT7CjqUOeuxPJP-omPZcnjRYueN1fQ0WykGcdWSSonmZBljFNupMbL-ixVuU-N4SjyRGK-BRafiYgUZfvcdIcxBGAzOvINP0TsGckearYHNBp8yJ1CLKNr6F7l7EFsd8uwOQIyCd-7vY6ljk8QYV3-QuvmbogBFpFE6b9ttcxUSlWE_f7HuCrDQc5Zt7Pl-78zFno5hT_XudFSUlGbPAhEZXblKskccFfsfqIW_KTM48DWI3IP89QhXptw7raJVh7_XEMWZetBn_IPA4coSCqtSme_XRP7TFDl6daskxUK4U_mL5ppmiz1srK_m7mlXJaiuKFneNUAUQ2Ny6m00?></g></svg>